<svg
      xmlns="http://www.w3.org/2000/svg"
      viewBox="0 0 640 430"
      style="background-color: #292b3e"
    >
      <style>
        text {
          font-size: 12px;
          font-family: Open Sans, Helvetica Neue, Helvetica, Arial, sans-serif;
        }
        #labels text {
          dominant-baseline: hanging;
          font-size: 10px;
          fill: rgba(0,0,0,0.5);
        }
        #legend {
          font-weight: 600;
        }
        #legend tspan {
          font-size: 15px;
        }
        #branding-text {
          font-size: 9px;
          dominant-baseline: hanging;
          opacity: 0.5;
        }
        #branding-logo {
          opacity: 0.5;
        }
      </style>

      
      
      <polygon
        fill="#2c3e50"
        fillRule="evenodd"
        points="0 305.4223922816444 14.883720930232558 305.86736588347947 29.767441860465116 306.2850485899419 44.651162790697676 306.7036900532121 59.53488372093023 307.0966556453957 74.4186046511628 307.49052193260354 89.30232558139535 307.87236653572006 104.18604651162792 308.23079186655116 119.06976744186046 308.5900414780743 133.95348837209303 308.9272561238429 148.8372093023256 309.2652451270013 163.72093023255815 309.5929171028915 178.6046511627907 309.8903890859565 193.48837209302326 310.19897807077894 208.37209302325584 310.4886436115419 223.25581395348837 310.77897197426483 238.13953488372093 311.05149404971 253.02325581395348 311.3246420781557 267.90697674418607 311.58945275128326 282.7906976744186 311.83802185577224 297.6744186046512 312.08716191023626 312.5581395348837 312.321021119214 327.4418604651163 312.55541757720687 342.3255813953488 312.78265927223873 357.2093023255814 312.9819423340768 372.093023255814 313.19616382435396 386.9767441860465 282.3058602794256 401.8604651162791 281.6323368751545 416.7441860465117 282.76627222056374 431.62790697674416 283.90280899387056 446.51162790697674 285.004657050092 461.39534883720927 268.1823882506282 476.27906976744185 247.76353369276063 491.16279069767444 211.2875101475047 506.04651162790697 204.31063326474919 520.9302325581396 183.6708191946894 535.8139534883721 162.86567449474006 550.6976744186046 137.2016063833886 565.5813953488372 111.45206052595498 580.4651162790698 91.15565880925115 595.3488372093024 76.52697196982507 610.232558139535 50.86028186534355 625.1162790697674 17.347933053282986 640 0 640 320 0 320"
      />
      
      <polygon
        fill="#2b7489"
        fillRule="evenodd"
        points="0 305.4223922816444 14.883720930232558 305.86736588347947 29.767441860465116 306.2850485899419 44.651162790697676 306.7036900532121 59.53488372093023 307.0966556453957 74.4186046511628 307.49052193260354 89.30232558139535 307.87236653572006 104.18604651162792 308.23079186655116 119.06976744186046 308.5900414780743 133.95348837209303 308.9272561238429 148.8372093023256 309.2652451270013 163.72093023255815 309.5929171028915 178.6046511627907 309.8903890859565 193.48837209302326 310.19897807077894 208.37209302325584 310.4886436115419 223.25581395348837 310.77897197426483 238.13953488372093 311.05149404971 253.02325581395348 311.3246420781557 267.90697674418607 311.58945275128326 282.7906976744186 311.83802185577224 297.6744186046512 312.08716191023626 312.5581395348837 312.321021119214 327.4418604651163 312.55541757720687 342.3255813953488 312.78265927223873 357.2093023255814 312.9819423340768 372.093023255814 313.19616382435396 386.9767441860465 283.54880663164704 401.8604651162791 284.6557578702069 416.7441860465117 285.7003377147292 431.62790697674416 286.74731399573443 446.51162790697674 287.7623350516185 461.39534883720927 280.2239542697561 476.27906976744185 262.4380907159954 491.16279069767444 236.9224484960012 506.04651162790697 236.1552793641448 520.9302325581396 227.14215720215054 535.8139534883721 221.9873122725097 550.6976744186046 210.55640490941772 565.5813953488372 203.37176750145184 580.4651162790698 193.56628345206548 595.3488372093024 187.4261419748701 610.232558139535 178.12643505383505 625.1162790697674 168.00031301536285 640 157.30172684065712 640 320 0 320"
      />
      
      <polygon
        fill="#89e051"
        fillRule="evenodd"
        points="0 305.4223922816444 14.883720930232558 305.86736588347947 29.767441860465116 306.2850485899419 44.651162790697676 306.7036900532121 59.53488372093023 307.0966556453957 74.4186046511628 307.49052193260354 89.30232558139535 307.87236653572006 104.18604651162792 308.23079186655116 119.06976744186046 308.5900414780743 133.95348837209303 308.9272561238429 148.8372093023256 309.2652451270013 163.72093023255815 309.5929171028915 178.6046511627907 309.8903890859565 193.48837209302326 310.19897807077894 208.37209302325584 310.4886436115419 223.25581395348837 310.77897197426483 238.13953488372093 311.05149404971 253.02325581395348 311.3246420781557 267.90697674418607 311.58945275128326 282.7906976744186 311.83802185577224 297.6744186046512 312.08716191023626 312.5581395348837 312.321021119214 327.4418604651163 312.55541757720687 342.3255813953488 312.78265927223873 357.2093023255814 312.9819423340768 372.093023255814 313.19616382435396 386.9767441860465 289.55369720796324 401.8604651162791 290.47735236633105 416.7441860465117 291.3498781591567 431.62790697674416 292.2244054809441 446.51162790697674 293.07224137260647 461.39534883720927 285.37692936690456 476.27906976744185 267.43377409281186 491.16279069767444 241.77048725710563 506.04651162790697 241.5127389959308 520.9302325581396 236.88510090699464 535.8139534883721 235.84537423557748 550.6976744186046 227.2679801354882 565.5813953488372 224.4077100823584 580.4651162790698 222.2296599782373 595.3488372093024 220.25851842212606 610.232558139535 212.8066520688401 625.1162790697674 207.2645531769726 640 197.82266869898416 640 320 0 320"
      />
      
      <polygon
        fill="#26c0b0"
        fillRule="evenodd"
        points="0 305.4223922816444 14.883720930232558 305.86736588347947 29.767441860465116 306.2850485899419 44.651162790697676 306.7036900532121 59.53488372093023 307.0966556453957 74.4186046511628 307.49052193260354 89.30232558139535 307.87236653572006 104.18604651162792 308.23079186655116 119.06976744186046 308.5900414780743 133.95348837209303 308.9272561238429 148.8372093023256 309.2652451270013 163.72093023255815 309.5929171028915 178.6046511627907 309.8903890859565 193.48837209302326 310.19897807077894 208.37209302325584 310.4886436115419 223.25581395348837 310.77897197426483 238.13953488372093 311.05149404971 253.02325581395348 311.3246420781557 267.90697674418607 311.58945275128326 282.7906976744186 311.83802185577224 297.6744186046512 312.08716191023626 312.5581395348837 312.321021119214 327.4418604651163 312.55541757720687 342.3255813953488 312.78265927223873 357.2093023255814 312.9819423340768 372.093023255814 313.19616382435396 386.9767441860465 289.55369720796324 401.8604651162791 290.47735236633105 416.7441860465117 291.3498781591567 431.62790697674416 292.2244054809441 446.51162790697674 293.07224137260647 461.39534883720927 285.37692936690456 476.27906976744185 267.43377409281186 491.16279069767444 241.77048725710563 506.04651162790697 241.5127389959308 520.9302325581396 236.88510090699464 535.8139534883721 235.84537423557748 550.6976744186046 227.2679801354882 565.5813953488372 224.4077100823584 580.4651162790698 222.2296599782373 595.3488372093024 220.25851842212606 610.232558139535 212.8066520688401 625.1162790697674 207.2645531769726 640 198.01344618473172 640 320 0 320"
      />
      
      <polygon
        fill="#4F5D95"
        fillRule="evenodd"
        points="0 305.4223922816444 14.883720930232558 305.86736588347947 29.767441860465116 306.2850485899419 44.651162790697676 306.7036900532121 59.53488372093023 307.0966556453957 74.4186046511628 307.49052193260354 89.30232558139535 307.87236653572006 104.18604651162792 308.23079186655116 119.06976744186046 308.5900414780743 133.95348837209303 308.9272561238429 148.8372093023256 309.2652451270013 163.72093023255815 309.5929171028915 178.6046511627907 309.8903890859565 193.48837209302326 310.19897807077894 208.37209302325584 310.4886436115419 223.25581395348837 310.77897197426483 238.13953488372093 311.05149404971 253.02325581395348 311.3246420781557 267.90697674418607 311.58945275128326 282.7906976744186 311.83802185577224 297.6744186046512 312.08716191023626 312.5581395348837 312.321021119214 327.4418604651163 312.55541757720687 342.3255813953488 312.78265927223873 357.2093023255814 312.9819423340768 372.093023255814 313.19616382435396 386.9767441860465 289.55369720796324 401.8604651162791 290.47735236633105 416.7441860465117 291.3498781591567 431.62790697674416 292.2244054809441 446.51162790697674 293.07224137260647 461.39534883720927 285.4209892482083 476.27906976744185 267.4764890709437 491.16279069767444 242.59329280837247 506.04651162790697 242.31042886581196 520.9302325581396 237.77854148553834 535.8139534883721 236.71414538369663 550.6976744186046 228.110232615418 565.5813953488372 225.47430357145242 580.4651162790698 223.2636963190319 595.3488372093024 221.26199427360314 610.232558139535 214.07242664296137 625.1162790697674 208.49169066558775 640 199.20605307985483 640 320 0 320"
      />
      
      <polygon
        fill="#7e7eff"
        fillRule="evenodd"
        points="0 305.4223922816444 14.883720930232558 305.86736588347947 29.767441860465116 306.2850485899419 44.651162790697676 306.7036900532121 59.53488372093023 307.0966556453957 74.4186046511628 307.49052193260354 89.30232558139535 307.87236653572006 104.18604651162792 308.23079186655116 119.06976744186046 308.5900414780743 133.95348837209303 308.9272561238429 148.8372093023256 309.2652451270013 163.72093023255815 309.5929171028915 178.6046511627907 309.8903890859565 193.48837209302326 310.19897807077894 208.37209302325584 310.4886436115419 223.25581395348837 310.77897197426483 238.13953488372093 311.05149404971 253.02325581395348 311.3246420781557 267.90697674418607 311.58945275128326 282.7906976744186 311.83802185577224 297.6744186046512 312.08716191023626 312.5581395348837 312.321021119214 327.4418604651163 312.55541757720687 342.3255813953488 312.78265927223873 357.2093023255814 312.9819423340768 372.093023255814 313.19616382435396 386.9767441860465 289.55369720796324 401.8604651162791 290.47735236633105 416.7441860465117 291.3498781591567 431.62790697674416 292.2244054809441 446.51162790697674 293.07224137260647 461.39534883720927 290.4104835556981 476.27906976744185 291.3136860324152 491.16279069767444 286.2942834677103 506.04651162790697 287.00065685758983 520.9302325581396 284.9081705877519 535.8139534883721 284.0044958387814 550.6976744186046 276.8507239078125 565.5813953488372 275.88542300281694 580.4651162790698 276.0608191372024 595.3488372093024 274.6097203170599 610.232558139535 266.76297632004275 625.1162790697674 266.47375533426873 640 259.91587781843214 640 320 0 320"
      />
      
      <polygon
        fill="#f1e05a"
        fillRule="evenodd"
        points="0 305.4223922816444 14.883720930232558 305.86736588347947 29.767441860465116 306.2850485899419 44.651162790697676 306.7036900532121 59.53488372093023 307.0966556453957 74.4186046511628 307.49052193260354 89.30232558139535 307.87236653572006 104.18604651162792 308.23079186655116 119.06976744186046 308.5900414780743 133.95348837209303 308.9272561238429 148.8372093023256 309.2652451270013 163.72093023255815 309.5929171028915 178.6046511627907 309.8903890859565 193.48837209302326 310.19897807077894 208.37209302325584 310.4886436115419 223.25581395348837 310.77897197426483 238.13953488372093 311.05149404971 253.02325581395348 311.3246420781557 267.90697674418607 311.58945275128326 282.7906976744186 311.83802185577224 297.6744186046512 312.08716191023626 312.5581395348837 312.321021119214 327.4418604651163 312.55541757720687 342.3255813953488 312.78265927223873 357.2093023255814 312.9819423340768 372.093023255814 313.19616382435396 386.9767441860465 289.85369179254434 401.8604651162791 290.7681897610254 416.7441860465117 291.6321200393478 431.62790697674416 292.49803206848344 446.51162790697674 293.3375156660715 461.39534883720927 290.6679178151425 476.27906976744185 291.5632622657868 491.16279069767444 286.53648359327457 506.04651162790697 287.2354639647841 520.9302325581396 285.1358103419183 535.8139534883721 284.2258500962714 550.6976744186046 277.0653214450899 565.5813953488372 276.093678232448 580.4651162790698 276.2627174918516 595.3488372093024 274.8056516682217 610.232558139535 266.9529269852367 625.1162790697674 266.6579078558096 640 260.0948484596116 640 320 0 320"
      />
      
      <polygon
        fill="#22e4e8"
        fillRule="evenodd"
        points="0 308.1268743283356 14.883720930232558 308.489295107337 29.767441860465116 308.82948800033984 44.651162790697676 309.1704619690762 59.53488372093023 309.4905233178045 74.4186046511628 309.8113182222742 89.30232558139535 310.12232182352705 104.18604651162792 310.4142509545383 119.06976744186046 310.7068515921978 133.95348837209303 310.98150513046477 148.8372093023256 311.2567893191108 163.72093023255815 311.5236705530011 178.6046511627907 311.7659547834895 193.48837209302326 312.0172932111092 208.37209302325584 312.25321932126417 223.25581395348837 312.48968513836485 238.13953488372093 312.7116479630927 253.02325581395348 312.9341208357367 267.90697674418607 313.1498029922563 282.7906976744186 313.3522567846073 297.6744186046512 313.5551757266748 312.5581395348837 313.74564858196214 327.4418604651163 313.93655911276375 342.3255813953488 314.12164238162734 357.2093023255814 314.28395379713356 372.093023255814 314.4584320785003 386.9767441860465 297.08355982803795 401.8604651162791 297.7792323290681 416.7441860465117 298.43595550492495 431.62790697674416 299.09418441236306 446.51162790697674 299.73232416445205 461.39534883720927 299.9334423599027 476.27906976744185 300.5459620184518 491.16279069767444 301.047700202 506.04651162790697 301.4209031705491 520.9302325581396 299.0353206623056 535.8139534883721 297.8308675547588 550.6976744186046 291.998580036802 565.5813953488372 290.80861796352247 580.4651162790698 290.74891291296893 595.3488372093024 289.1776723881211 610.232558139535 282.3022165540277 625.1162790697674 281.53866887270937 640 276.47885745542976 640 320 0 320"
      />
      
      <polygon
        fill="#e34c26"
        fillRule="evenodd"
        points="0 308.1268743283356 14.883720930232558 308.489295107337 29.767441860465116 308.82948800033984 44.651162790697676 309.1704619690762 59.53488372093023 309.4905233178045 74.4186046511628 309.8113182222742 89.30232558139535 310.12232182352705 104.18604651162792 310.4142509545383 119.06976744186046 310.7068515921978 133.95348837209303 310.98150513046477 148.8372093023256 311.2567893191108 163.72093023255815 311.5236705530011 178.6046511627907 311.7659547834895 193.48837209302326 312.0172932111092 208.37209302325584 312.25321932126417 223.25581395348837 312.48968513836485 238.13953488372093 312.7116479630927 253.02325581395348 312.9341208357367 267.90697674418607 313.1498029922563 282.7906976744186 313.3522567846073 297.6744186046512 313.5551757266748 312.5581395348837 313.74564858196214 327.4418604651163 313.93655911276375 342.3255813953488 314.12164238162734 357.2093023255814 314.28395379713356 372.093023255814 314.4584320785003 386.9767441860465 303.08877703602457 401.8604651162791 303.6048419914283 416.7441860465117 304.0893920425047 431.62790697674416 304.57505346384784 446.51162790697674 305.04589334828574 461.39534883720927 305.4878537882551 476.27906976744185 305.93082812297075 491.16279069767444 306.2734191216646 506.04651162790697 306.6924144302669 520.9302325581396 307.09862108483514 535.8139534883721 307.4548496019311 550.6976744186046 307.351890780104 565.5813953488372 307.54636195770183 580.4651162790698 307.92650086237893 595.3488372093024 308.2833277610482 610.232558139535 308.27133515099894 625.1162790697674 308.3631691772437 640 308.6906195275372 640 320 0 320"
      />
      
      <polygon
        fill="#244776"
        fillRule="evenodd"
        points="0 315.4421106642686 14.883720930232558 315.581237731037 29.767441860465116 315.7118319550711 44.651162790697676 315.8427260466421 59.53488372093023 315.9655919905682 74.4186046511628 316.0887403234134 89.30232558139535 316.2081291148081 104.18604651162792 316.32019562161423 119.06976744186046 316.432519610309 133.95348837209303 316.53795445641293 148.8372093023256 316.64363105364953 163.72093023255815 316.746082736658 178.6046511627907 316.83909137790954 193.48837209302326 316.9355758061755 208.37209302325584 317.0261437223113 223.25581395348837 317.1169187054475 238.13953488372093 317.2021266395685 253.02325581395348 317.2875298972436 267.90697674418607 317.3703269837612 282.7906976744186 317.44804533014866 297.6744186046512 317.52594245002405 312.5581395348837 317.5990619535819 327.4418604651163 317.67234914262934 342.3255813953488 317.7433993417 357.2093023255814 317.8057079377949 372.093023255814 317.87268725753523 386.9767441860465 310.1801040846534 401.8604651162791 310.4797094673895 416.7441860465117 310.76107714085543 431.62790697674416 311.0430891777685 446.51162790697674 311.3164955112365 461.39534883720927 311.5731312589337 476.27906976744185 311.83035649868833 491.16279069767444 312.0718052905721 506.04651162790697 312.31380883794526 520.9302325581396 312.54842571660254 535.8139534883721 312.7541769894869 550.6976744186046 312.48945847564903 565.5813953488372 312.53209126167303 580.4651162790698 312.7600432948336 595.3488372093024 312.9740179963128 610.232558139535 312.9674372033043 625.1162790697674 312.91592580761255 640 313.1152649900152 640 320 0 320"
      />
      
      <polygon
        fill="#563d7c"
        fillRule="evenodd"
        points="0 315.4421106642686 14.883720930232558 315.581237731037 29.767441860465116 315.7118319550711 44.651162790697676 315.8427260466421 59.53488372093023 315.9655919905682 74.4186046511628 316.0887403234134 89.30232558139535 316.2081291148081 104.18604651162792 316.32019562161423 119.06976744186046 316.432519610309 133.95348837209303 316.53795445641293 148.8372093023256 316.64363105364953 163.72093023255815 316.746082736658 178.6046511627907 316.83909137790954 193.48837209302326 316.9355758061755 208.37209302325584 317.0261437223113 223.25581395348837 317.1169187054475 238.13953488372093 317.2021266395685 253.02325581395348 317.2875298972436 267.90697674418607 317.3703269837612 282.7906976744186 317.44804533014866 297.6744186046512 317.52594245002405 312.5581395348837 317.5990619535819 327.4418604651163 317.67234914262934 342.3255813953488 317.7433993417 357.2093023255814 317.8057079377949 372.093023255814 317.87268725753523 386.9767441860465 310.1951162794142 401.8604651162791 310.49426342413466 416.7441860465117 310.7752009624714 431.62790697674416 311.0567818778057 446.51162790697674 311.32977025000173 461.39534883720927 311.5860136693662 476.27906976744185 311.84284568118557 491.16279069767444 312.08392536180315 506.04651162790697 312.32555895074336 520.9302325581396 312.5598171637934 535.8139534883721 312.7652539007571 550.6976744186046 312.5001972707045 565.5813953488372 312.54251267670907 580.4651162790698 312.7701466028488 595.3488372093024 312.9838227056295 610.232558139535 312.9769426300717 625.1162790697674 312.92514108659316 640 313.1242209594991 640 320 0 320"
      />
      
      <polygon
        fill="#C1F12E"
        fillRule="evenodd"
        points="0 320 14.883720930232558 320 29.767441860465116 320 44.651162790697676 320 59.53488372093023 320 74.4186046511628 320 89.30232558139535 320 104.18604651162792 320 119.06976744186046 320 133.95348837209303 320 148.8372093023256 320 163.72093023255815 320 178.6046511627907 320 193.48837209302326 320 208.37209302325584 320 223.25581395348837 320 238.13953488372093 320 253.02325581395348 320 267.90697674418607 320 282.7906976744186 320 297.6744186046512 320 312.5581395348837 320 327.4418604651163 320 342.3255813953488 320 357.2093023255814 320 372.093023255814 320 386.9767441860465 318.2644479175033 401.8604651162791 318.3174245703057 416.7441860465117 318.36715222115987 431.62790697674416 318.41699397461593 446.51162790697674 318.46531437825325 461.39534883720927 318.51067117299885 476.27906976744185 318.55613207476176 491.16279069767444 318.59880486387993 506.04651162790697 318.64157547863715 520.9302325581396 318.683040713747 535.8139534883721 318.71940404955825 550.6976744186046 318.75849339430033 565.5813953488372 318.7951856012299 580.4651162790698 318.83196176014565 595.3488372093024 318.8664825765358 610.232558139535 318.9010825382923 625.1162790697674 318.93462635456734 640 318.96460496977375 640 320 0 320"
      />
      

      
        <g id="labels">
        
          
          <text x="0" y="330">
            Feb 2019
          </text>
          
        
          
        
          
        
          
        
          
        
          
        
          
          <text x="87.27272727272727" y="330">
            Aug 2019
          </text>
          
        
          
        
          
        
          
        
          
        
          
        
          
          <text x="174.54545454545453" y="330">
            Feb 2020
          </text>
          
        
          
        
          
        
          
        
          
        
          
        
          
          <text x="261.8181818181818" y="330">
            Aug 2020
          </text>
          
        
          
        
          
        
          
        
          
        
          
        
          
          <text x="349.09090909090907" y="330">
            Feb 2021
          </text>
          
        
          
        
          
        
          
        
          
        
          
        
          
          <text x="436.3636363636364" y="330">
            Aug 2021
          </text>
          
        
          
        
          
        
          
        
          
        
          
        
          
          <text x="523.6363636363636" y="330">
            Feb 2022
          </text>
          
        
          
        
          
        
          
        
          
        
          
        
          
          <text x="610.9090909090909" y="330">
            Aug 2022
          </text>
          
        
          
        
        </g>
      

      
        <text text-anchor="middle" y="370" x="320" id="legend">
          
          <tspan xml:space="preserve" fill="#C1F12E">   ◉</tspan> Batchfile
          
          <tspan xml:space="preserve" fill="#563d7c">   ◉</tspan> CSS
          
          <tspan xml:space="preserve" fill="#244776">   ◉</tspan> CoffeeScript
          
          <tspan xml:space="preserve" fill="#e34c26">   ◉</tspan> HTML
          
          <tspan xml:space="preserve" fill="#22e4e8">   ◉</tspan> JSON
          
          <tspan xml:space="preserve" fill="#f1e05a">   ◉</tspan> JavaScript
          
          <tspan xml:space="preserve" fill="#7e7eff">   ◉</tspan> Nix
          
          <tspan xml:space="preserve" fill="#4F5D95">   ◉</tspan> PHP
          
        </text>
      
        <text text-anchor="middle" y="400" x="320" id="legend">
          
          <tspan xml:space="preserve" fill="#26c0b0">   ◉</tspan> SCSS
          
          <tspan xml:space="preserve" fill="#89e051">   ◉</tspan> Shell
          
          <tspan xml:space="preserve" fill="#2b7489">   ◉</tspan> TypeScript
          
          <tspan xml:space="preserve" fill="#2c3e50">   ◉</tspan> Vue
          
        </text>
      

    </svg>