<svg
      xmlns="http://www.w3.org/2000/svg"
      viewBox="0 0 640 430"
      style="background-color: #292b3e"
    >
      <style>
        text {
          font-size: 12px;
          font-family: Open Sans, Helvetica Neue, Helvetica, Arial, sans-serif;
        }
        #labels text {
          dominant-baseline: hanging;
          font-size: 10px;
          fill: rgba(0,0,0,0.5);
        }
        #legend {
          font-weight: 600;
        }
        #legend tspan {
          font-size: 15px;
        }
        #branding-text {
          font-size: 9px;
          dominant-baseline: hanging;
          opacity: 0.5;
        }
        #branding-logo {
          opacity: 0.5;
        }
      </style>

      
      
      <polygon
        fill="#2c3e50"
        fillRule="evenodd"
        points="0 305.4011318882131 14.883720930232558 305.8467544520744 29.767441860465116 306.2650463187529 44.651162790697676 306.6842983405172 59.53488372093023 307.0778370447818 74.4186046511628 307.4722777576696 89.30232558139535 307.8546792537035 104.18604651162792 308.21362732212623 119.06976744186046 308.57340087339503 133.95348837209303 308.911107322495 148.8372093023256 309.24958925832954 163.72093023255815 309.57773912025266 178.6046511627907 309.8756449448311 193.48837209302326 310.1846839845153 208.37209302325584 310.4747719816565 223.25581395348837 310.76552376743587 238.13953488372093 311.0384432967469 253.02325581395348 311.31198969196595 267.90697674418607 311.5771865724331 282.7906976744186 311.82611819710087 297.6744186046512 312.0756216044332 312.5581395348837 312.3098218802641 327.4418604651163 312.54456018864914 342.3255813953488 312.7721332993655 357.2093023255814 312.9717070012304 372.093023255814 313.186240918159 386.9767441860465 282.2508860850313 401.8604651162791 281.5763803952689 416.7441860465117 282.71196950390424 431.62790697674416 283.8501638344328 446.51162790697674 284.9536188568746 461.39534883720927 268.10681598707544 476.27906976744185 247.65818199696471 491.16279069767444 211.12896079223248 506.04651162790697 204.14190863584395 520.9302325581396 183.4719928799688 535.8139534883721 162.6365053713597 550.6976744186046 136.93500806067487 565.5813953488372 111.14790834075694 580.4651162790698 90.82190578048034 595.3488372093024 76.17188405239506 610.232558139535 50.467760924591516 625.1162790697674 16.90653675970799 640 0 640 320 0 320"
      />
      
      <polygon
        fill="#2b7489"
        fillRule="evenodd"
        points="0 305.4011318882131 14.883720930232558 305.8467544520744 29.767441860465116 306.2650463187529 44.651162790697676 306.6842983405172 59.53488372093023 307.0778370447818 74.4186046511628 307.4722777576696 89.30232558139535 307.8546792537035 104.18604651162792 308.21362732212623 119.06976744186046 308.57340087339503 133.95348837209303 308.911107322495 148.8372093023256 309.24958925832954 163.72093023255815 309.57773912025266 178.6046511627907 309.8756449448311 193.48837209302326 310.1846839845153 208.37209302325584 310.4747719816565 223.25581395348837 310.76552376743587 238.13953488372093 311.0384432967469 253.02325581395348 311.31198969196595 267.90697674418607 311.5771865724331 282.7906976744186 311.82611819710087 297.6744186046512 312.0756216044332 312.5581395348837 312.3098218802641 327.4418604651163 312.54456018864914 342.3255813953488 312.7721332993655 357.2093023255814 312.9717070012304 372.093023255814 313.186240918159 386.9767441860465 283.49564518519963 401.8604651162791 284.6042108326046 416.7441860465117 285.6503141217753 431.62790697674416 286.6988173424594 446.51162790697674 287.71531873362244 461.39534883720927 280.16594376503525 476.27906976744185 262.3541408072259 491.16279069767444 236.80128585639628 506.04651162790697 236.03299786348344 520.9302325581396 227.00673071042414 535.8139534883721 221.84436780983782 550.6976744186046 210.39678928968692 565.5813953488372 203.20167360428997 580.4651162790698 193.3818889609583 595.3488372093024 187.23279252859808 610.232558139535 177.91952265321848 625.1162790697674 167.77863239333232 640 157.30177063694197 640 320 0 320"
      />
      
      <polygon
        fill="#89e051"
        fillRule="evenodd"
        points="0 305.4011318882131 14.883720930232558 305.8467544520744 29.767441860465116 306.2650463187529 44.651162790697676 306.6842983405172 59.53488372093023 307.0778370447818 74.4186046511628 307.4722777576696 89.30232558139535 307.8546792537035 104.18604651162792 308.21362732212623 119.06976744186046 308.57340087339503 133.95348837209303 308.911107322495 148.8372093023256 309.24958925832954 163.72093023255815 309.57773912025266 178.6046511627907 309.8756449448311 193.48837209302326 310.1846839845153 208.37209302325584 310.4747719816565 223.25581395348837 310.76552376743587 238.13953488372093 311.0384432967469 253.02325581395348 311.31198969196595 267.90697674418607 311.5771865724331 282.7906976744186 311.82611819710087 297.6744186046512 312.0756216044332 312.5581395348837 312.3098218802641 327.4418604651163 312.54456018864914 342.3255813953488 312.7721332993655 357.2093023255814 312.9717070012304 372.093023255814 313.186240918159 386.9767441860465 289.5092934629598 401.8604651162791 290.4342957060099 416.7441860465117 291.30809401501193 431.62790697674416 292.18389677206187 446.51162790697674 293.0329691714538 461.39534883720927 285.3264341061128 476.27906976744185 267.3571100292991 491.16279069767444 241.65639513369393 506.04651162790697 241.3982709651998 520.9302325581396 236.76388379861464 535.8139534883721 235.72264076055336 550.6976744186046 227.13273714746944 565.5813953488372 224.26829559598247 580.4651162790698 222.08706896228108 595.3488372093024 220.11305263784016 610.232558139535 212.6503182729072 625.1162790697674 207.1001366280152 640 197.8227001889773 640 320 0 320"
      />
      
      <polygon
        fill="#26c0b0"
        fillRule="evenodd"
        points="0 305.4011318882131 14.883720930232558 305.8467544520744 29.767441860465116 306.2650463187529 44.651162790697676 306.6842983405172 59.53488372093023 307.0778370447818 74.4186046511628 307.4722777576696 89.30232558139535 307.8546792537035 104.18604651162792 308.21362732212623 119.06976744186046 308.57340087339503 133.95348837209303 308.911107322495 148.8372093023256 309.24958925832954 163.72093023255815 309.57773912025266 178.6046511627907 309.8756449448311 193.48837209302326 310.1846839845153 208.37209302325584 310.4747719816565 223.25581395348837 310.76552376743587 238.13953488372093 311.0384432967469 253.02325581395348 311.31198969196595 267.90697674418607 311.5771865724331 282.7906976744186 311.82611819710087 297.6744186046512 312.0756216044332 312.5581395348837 312.3098218802641 327.4418604651163 312.54456018864914 342.3255813953488 312.7721332993655 357.2093023255814 312.9717070012304 372.093023255814 313.186240918159 386.9767441860465 289.5092934629598 401.8604651162791 290.4342957060099 416.7441860465117 291.30809401501193 431.62790697674416 292.18389677206187 446.51162790697674 293.0329691714538 461.39534883720927 285.3264341061128 476.27906976744185 267.3571100292991 491.16279069767444 241.65639513369393 506.04651162790697 241.3982709651998 520.9302325581396 236.76388379861464 535.8139534883721 235.72264076055336 550.6976744186046 227.13273714746944 565.5813953488372 224.26829559598247 580.4651162790698 222.08706896228108 595.3488372093024 220.11305263784016 610.232558139535 212.6503182729072 625.1162790697674 207.1001366280152 640 198.01347764934548 640 320 0 320"
      />
      
      <polygon
        fill="#4F5D95"
        fillRule="evenodd"
        points="0 305.4011318882131 14.883720930232558 305.8467544520744 29.767441860465116 306.2650463187529 44.651162790697676 306.6842983405172 59.53488372093023 307.0778370447818 74.4186046511628 307.4722777576696 89.30232558139535 307.8546792537035 104.18604651162792 308.21362732212623 119.06976744186046 308.57340087339503 133.95348837209303 308.911107322495 148.8372093023256 309.24958925832954 163.72093023255815 309.57773912025266 178.6046511627907 309.8756449448311 193.48837209302326 310.1846839845153 208.37209302325584 310.4747719816565 223.25581395348837 310.76552376743587 238.13953488372093 311.0384432967469 253.02325581395348 311.31198969196595 267.90697674418607 311.5771865724331 282.7906976744186 311.82611819710087 297.6744186046512 312.0756216044332 312.5581395348837 312.3098218802641 327.4418604651163 312.54456018864914 342.3255813953488 312.7721332993655 357.2093023255814 312.9717070012304 372.093023255814 313.186240918159 386.9767441860465 289.5092934629598 401.8604651162791 290.4342957060099 416.7441860465117 291.30809401501193 431.62790697674416 292.18389677206187 446.51162790697674 293.0329691714538 461.39534883720927 285.3705582455877 476.27906976744185 267.39988730415746 491.16279069767444 242.4804006877373 506.04651162790697 242.19712420844084 520.9302325581396 237.65862739604694 535.8139534883721 236.59267894896934 550.6976744186046 227.97621799212396 565.5813953488372 225.33644463504376 580.4651162790698 223.1226133707815 595.3488372093024 221.11799198674518 610.232558139535 213.91793888829682 625.1162790697674 208.32906380848556 640 199.2060846785919 640 320 0 320"
      />
      
      <polygon
        fill="#7e7eff"
        fillRule="evenodd"
        points="0 305.4011318882131 14.883720930232558 305.8467544520744 29.767441860465116 306.2650463187529 44.651162790697676 306.6842983405172 59.53488372093023 307.0778370447818 74.4186046511628 307.4722777576696 89.30232558139535 307.8546792537035 104.18604651162792 308.21362732212623 119.06976744186046 308.57340087339503 133.95348837209303 308.911107322495 148.8372093023256 309.24958925832954 163.72093023255815 309.57773912025266 178.6046511627907 309.8756449448311 193.48837209302326 310.1846839845153 208.37209302325584 310.4747719816565 223.25581395348837 310.76552376743587 238.13953488372093 311.0384432967469 253.02325581395348 311.31198969196595 267.90697674418607 311.5771865724331 282.7906976744186 311.82611819710087 297.6744186046512 312.0756216044332 312.5581395348837 312.3098218802641 327.4418604651163 312.54456018864914 342.3255813953488 312.7721332993655 357.2093023255814 312.9717070012304 372.093023255814 313.186240918159 386.9767441860465 289.5092934629598 401.8604651162791 290.4342957060099 416.7441860465117 291.30809401501193 431.62790697674416 292.18389677206187 446.51162790697674 293.0329691714538 461.39534883720927 290.36732937202123 476.27906976744185 291.27184910465405 491.16279069767444 286.2451261019611 506.04651162790697 286.9525296866757 520.9302325581396 284.85699167596186 535.8139534883721 283.95199898230055 550.6976744186046 276.78779378898105 565.5813953488372 275.8210850619741 580.4651162790698 275.99673699901905 595.3488372093024 274.54352185551124 610.232558139535 266.6853339461764 625.1162790697674 266.39569115237566 640 259.9158817302994 640 320 0 320"
      />
      
      <polygon
        fill="#f1e05a"
        fillRule="evenodd"
        points="0 305.4011318882131 14.883720930232558 305.8467544520744 29.767441860465116 306.2650463187529 44.651162790697676 306.6842983405172 59.53488372093023 307.0778370447818 74.4186046511628 307.4722777576696 89.30232558139535 307.8546792537035 104.18604651162792 308.21362732212623 119.06976744186046 308.57340087339503 133.95348837209303 308.911107322495 148.8372093023256 309.24958925832954 163.72093023255815 309.57773912025266 178.6046511627907 309.8756449448311 193.48837209302326 310.1846839845153 208.37209302325584 310.4747719816565 223.25581395348837 310.76552376743587 238.13953488372093 311.0384432967469 253.02325581395348 311.31198969196595 267.90697674418607 311.5771865724331 282.7906976744186 311.82611819710087 297.6744186046512 312.0756216044332 312.5581395348837 312.3098218802641 327.4418604651163 312.54456018864914 342.3255813953488 312.7721332993655 357.2093023255814 312.9717070012304 372.093023255814 313.186240918159 386.9767441860465 289.80972556808734 401.8604651162791 290.72555726614723 416.7441860465117 291.5907475247057 431.62790697674416 292.4579224243186 446.51162790697674 293.29863034841543 461.39534883720927 290.625139080836 476.27906976744185 291.5217893270295 491.16279069767444 286.487679459006 506.04651162790697 287.1876792431645 520.9302325581396 285.0849634263534 535.8139534883721 284.1736760690705 550.6976744186046 277.0027043013474 565.5813953488372 276.02964401689405 580.4651162790698 276.1989298079117 595.3488372093024 274.73973895847075 610.232558139535 266.8755616407673 625.1162790697674 266.5801122471375 640 260.09485235727243 640 320 0 320"
      />
      
      <polygon
        fill="#22e4e8"
        fillRule="evenodd"
        points="0 308.10955822764777 14.883720930232558 308.4725075713148 29.767441860465116 308.81319661120864 44.651162790697676 309.15466786597887 59.53488372093023 309.4751960011873 74.4186046511628 309.79645876197554 89.30232558139535 310.10791593963467 104.18604651162792 310.40027082830795 119.06976744186046 310.69329820297355 133.95348837209303 310.9683523036918 148.8372093023256 311.24403797454727 163.72093023255815 311.5113084355414 178.6046511627907 311.75394602017144 193.48837209302326 312.00565100682866 208.37209302325584 312.2419211982636 223.25581395348837 312.4787318837681 238.13953488372093 312.7010184253274 253.02325581395348 312.923815758671 267.90697674418607 313.1398124721189 282.7906976744186 313.3425615287793 297.6744186046512 313.54577641354376 312.5581395348837 313.73652705980476 327.4418604651163 313.92771601989824 342.3255813953488 314.11306921941093 357.2093023255814 314.2756173544543 372.093023255814 314.4503500998579 386.9767441860465 297.0501378466324 401.8604651162791 297.7468249360201 416.7441860465117 298.40450589544224 431.62790697674416 299.06369478244693 446.51162790697674 299.70276521551295 461.39534883720927 299.904176727401 476.27906976744185 300.51758970186154 491.16279069767444 301.0200596344996 506.04651162790697 301.3938068927631 520.9302325581396 299.00474518383953 535.8139534883721 297.7985354679774 550.6976744186046 291.9577419777354 565.5813953488372 290.7660444302728 580.4651162790698 290.70625230419296 595.3488372093024 289.1327202379359 610.232558139535 282.2472370455218 625.1162790697674 281.4825757847724 640 276.47885767400555 640 320 0 320"
      />
      
      <polygon
        fill="#e34c26"
        fillRule="evenodd"
        points="0 308.10955822764777 14.883720930232558 308.4725075713148 29.767441860465116 308.81319661120864 44.651162790697676 309.15466786597887 59.53488372093023 309.4751960011873 74.4186046511628 309.79645876197554 89.30232558139535 310.10791593963467 104.18604651162792 310.40027082830795 119.06976744186046 310.69329820297355 133.95348837209303 310.9683523036918 148.8372093023256 311.24403797454727 163.72093023255815 311.5113084355414 178.6046511627907 311.75394602017144 193.48837209302326 312.00565100682866 208.37209302325584 312.2419211982636 223.25581395348837 312.4787318837681 238.13953488372093 312.7010184253274 253.02325581395348 312.923815758671 267.90697674418607 313.1398124721189 282.7906976744186 313.3425615287793 297.6744186046512 313.54577641354376 312.5581395348837 313.73652705980476 327.4418604651163 313.92771601989824 342.3255813953488 314.11306921941093 357.2093023255814 314.2756173544543 372.093023255814 314.4503500998579 386.9767441860465 303.0641132324318 401.8604651162791 303.5809308314929 416.7441860465117 304.066187564003 431.62790697674416 304.5525572876336 446.51162790697674 305.0240838582123 461.39534883720927 305.4666888657277 476.27906976744185 305.9103092466821 491.16279069767444 306.2533998897318 506.04651162790697 306.6730062728862 520.9302325581396 307.07980535067344 535.8139534883721 307.4365534014659 550.6976744186046 307.33344442159495 565.5813953488372 307.52819922143226 580.4651162790698 307.90889253138823 595.3488372093024 308.26623983645055 610.232558139535 308.2542297360412 625.1162790697674 308.3461976956148 640 308.6906194457538 640 320 0 320"
      />
      
      <polygon
        fill="#244776"
        fillRule="evenodd"
        points="0 315.43546331016455 14.883720930232558 315.5747932837633 29.767441860465116 315.70557797008973 44.651162790697676 315.8366629612883 59.53488372093023 315.95970809636555 74.4186046511628 316.08303603220577 89.30232558139535 316.2025989435744 104.18604651162792 316.31482889132855 119.06976744186046 316.4273166964902 133.95348837209303 316.5329053117415 148.8372093023256 316.6387360307021 163.72093023255815 316.74133713212893 178.6046511627907 316.8344814198009 193.48837209302326 316.9311065636729 208.37209302325584 317.0218065666069 223.25581395348837 317.1127139385337 238.13953488372093 317.1980461423043 253.02325581395348 317.28357395449433 267.90697674418607 317.36649179461347 282.7906976744186 317.444323487625 297.6744186046512 317.52233421485266 312.5581395348837 317.59556035795265 327.4418604651163 317.66895443109956 342.3255813953488 317.7401082517805 357.2093023255814 317.80250772048583 372.093023255814 317.8695847247514 386.9767441860465 310.1657824720371 401.8604651162791 310.46582480769683 416.7441860465117 310.74760283569776 431.62790697674416 311.03002616690355 446.51162790697674 311.30383124386424 461.39534883720927 311.5608412763597 476.27906976744185 311.8184416606445 491.16279069767444 312.0602425882427 506.04651162790697 312.30259908040136 520.9302325581396 312.5375581309185 535.8139534883721 312.7436094772508 550.6976744186046 312.47850489048096 565.5813953488372 312.52119985336014 580.4651162790698 312.74948433818236 595.3488372093024 312.9637711063892 610.232558139535 312.9571807157669 625.1162790697674 312.90559419440575 640 313.1152652099935 640 320 0 320"
      />
      
      <polygon
        fill="#563d7c"
        fillRule="evenodd"
        points="0 315.43546331016455 14.883720930232558 315.5747932837633 29.767441860465116 315.70557797008973 44.651162790697676 315.8366629612883 59.53488372093023 315.95970809636555 74.4186046511628 316.08303603220577 89.30232558139535 316.2025989435744 104.18604651162792 316.31482889132855 119.06976744186046 316.4273166964902 133.95348837209303 316.5329053117415 148.8372093023256 316.6387360307021 163.72093023255815 316.74133713212893 178.6046511627907 316.8344814198009 193.48837209302326 316.9311065636729 208.37209302325584 317.0218065666069 223.25581395348837 317.1127139385337 238.13953488372093 317.1980461423043 253.02325581395348 317.28357395449433 267.90697674418607 317.36649179461347 282.7906976744186 317.444323487625 297.6744186046512 317.52233421485266 312.5581395348837 317.59556035795265 327.4418604651163 317.66895443109956 342.3255813953488 317.7401082517805 357.2093023255814 317.80250772048583 372.093023255814 317.8695847247514 386.9767441860465 310.1808165610053 401.8604651162791 310.48039999034216 416.7441860465117 310.76174725589266 431.62790697674416 311.0437388367599 446.51162790697674 311.31712534288215 461.39534883720927 311.57374247486223 476.27906976744185 311.830949057717 491.16279069767444 312.0723803357268 506.04651162790697 312.3143663298947 520.9302325581396 312.54896619171666 535.8139534883721 312.75470254340024 550.6976744186046 312.48925934729743 565.5813953488372 312.5316364672812 580.4651162790698 312.75960238114635 595.3488372093024 312.97359011517 610.232558139535 312.96670000551626 625.1162790697674 312.91482291320864 640 313.12422117922097 640 320 0 320"
      />
      
      <polygon
        fill="#C1F12E"
        fillRule="evenodd"
        points="0 320 14.883720930232558 320 29.767441860465116 320 44.651162790697676 320 59.53488372093023 320 74.4186046511628 320 89.30232558139535 320 104.18604651162792 320 119.06976744186046 320 133.95348837209303 320 148.8372093023256 320 163.72093023255815 320 178.6046511627907 320 193.48837209302326 320 208.37209302325584 320 223.25581395348837 320 238.13953488372093 320 253.02325581395348 320 267.90697674418607 320 282.7906976744186 320 297.6744186046512 320 312.5581395348837 320 327.4418604651163 320 342.3255813953488 320 357.2093023255814 320 372.093023255814 320 386.9767441860465 318.26191673949336 401.8604651162791 318.31497065493744 416.7441860465117 318.3647708299973 431.62790697674416 318.4146852740696 446.51162790697674 318.4630761495437 461.39534883720927 318.5084990939155 476.27906976744185 318.55402629713717 491.16279069767444 318.59676132145216 506.04651162790697 318.63959431407784 520.9302325581396 318.6811200232538 535.8139534883721 318.71753639237755 550.6976744186046 318.7566827461203 565.5813953488372 318.79342846599724 580.4651162790698 318.83025826029836 595.3488372093024 318.86482942281884 610.232558139535 318.8994798461335 625.1162790697674 318.9330725836544 640 318.96460503283123 640 320 0 320"
      />
      

      
        <g id="labels">
        
          
          <text x="0" y="330">
            Feb 2019
          </text>
          
        
          
        
          
        
          
        
          
        
          
        
          
          <text x="87.27272727272727" y="330">
            Aug 2019
          </text>
          
        
          
        
          
        
          
        
          
        
          
        
          
          <text x="174.54545454545453" y="330">
            Feb 2020
          </text>
          
        
          
        
          
        
          
        
          
        
          
        
          
          <text x="261.8181818181818" y="330">
            Aug 2020
          </text>
          
        
          
        
          
        
          
        
          
        
          
        
          
          <text x="349.09090909090907" y="330">
            Feb 2021
          </text>
          
        
          
        
          
        
          
        
          
        
          
        
          
          <text x="436.3636363636364" y="330">
            Aug 2021
          </text>
          
        
          
        
          
        
          
        
          
        
          
        
          
          <text x="523.6363636363636" y="330">
            Feb 2022
          </text>
          
        
          
        
          
        
          
        
          
        
          
        
          
          <text x="610.9090909090909" y="330">
            Aug 2022
          </text>
          
        
          
        
        </g>
      

      
        <text text-anchor="middle" y="370" x="320" id="legend">
          
          <tspan xml:space="preserve" fill="#C1F12E">   ◉</tspan> Batchfile
          
          <tspan xml:space="preserve" fill="#563d7c">   ◉</tspan> CSS
          
          <tspan xml:space="preserve" fill="#244776">   ◉</tspan> CoffeeScript
          
          <tspan xml:space="preserve" fill="#e34c26">   ◉</tspan> HTML
          
          <tspan xml:space="preserve" fill="#22e4e8">   ◉</tspan> JSON
          
          <tspan xml:space="preserve" fill="#f1e05a">   ◉</tspan> JavaScript
          
          <tspan xml:space="preserve" fill="#7e7eff">   ◉</tspan> Nix
          
          <tspan xml:space="preserve" fill="#4F5D95">   ◉</tspan> PHP
          
        </text>
      
        <text text-anchor="middle" y="400" x="320" id="legend">
          
          <tspan xml:space="preserve" fill="#26c0b0">   ◉</tspan> SCSS
          
          <tspan xml:space="preserve" fill="#89e051">   ◉</tspan> Shell
          
          <tspan xml:space="preserve" fill="#2b7489">   ◉</tspan> TypeScript
          
          <tspan xml:space="preserve" fill="#2c3e50">   ◉</tspan> Vue
          
        </text>
      

    </svg>